<?xml version="1.0" encoding="UTF-8"?>
<svg width="37px" height="32px" viewBox="0 0 37 32" version="1.1" xmlns="http://www.w3.org/2000/svg" xmlns:xlink="http://www.w3.org/1999/xlink">
    <!-- Generator: Sketch 50.2 (55047) - http://www.bohemiancoding.com/sketch -->
    <title>Fill 1</title>
    <desc>Created with Sketch.</desc>
    <defs></defs>
    <g id="Page-1" stroke="none" stroke-width="1" fill="none" fill-rule="evenodd" fill-opacity="0.8">
        <g id="Home-(desktop)" transform="translate(-485.000000, -126.000000)" fill="#E6E6E6">
            <path d="M515.930614,157.103463 L489.369157,157.103463 C485.667083,157.103463 483.649075,152.812998 486.025561,149.995171 L491.254307,143.795059 C492.511971,142.303408 494.787915,142.203291 496.173649,143.57908 L496.925315,144.325648 C498.402614,145.792345 500.858695,145.566562 502.039456,143.855367 L504.95306,139.632636 C507.045276,136.600315 511.519664,136.507328 513.738156,139.449931 L520.385851,148.266745 C523.133082,151.910164 520.514221,157.103463 515.930614,157.103463 M491.860216,126 C495.022089,126 497.577375,128.55555 497.577375,131.716989 C497.577375,134.878427 495.022089,137.433978 491.860216,137.433978 C488.698684,137.433978 486.143398,134.878427 486.143398,131.743184 C486.143398,128.581745 488.698684,126.026535 491.860216,126" id="Fill-1"></path>
        </g>
    </g>
</svg>